<?xml version="1.0" ?><!-- Uploaded to: SVG Repo, www.svgrepo.com, Generator: SVG Repo Mixer Tools -->
<svg fill="#000000" width="800px" height="800px" viewBox="0 0 24 24" id="Main" xmlns="http://www.w3.org/2000/svg"><title/><path d="M11,22h2a3,3,0,0,0,3-3v-.88a4.09,4.09,0,0,1,1.21-2.91A6.12,6.12,0,0,0,19,10.88V10A7,7,0,0,0,5,10v.88a6.12,6.12,0,0,0,1.79,4.33A4.09,4.09,0,0,1,8,18.12V19A3,3,0,0,0,11,22Zm2-2H11a1,1,0,0,1-1-1h4A1,1,0,0,1,13,20ZM7,10a5,5,0,0,1,10,0v.88a4.09,4.09,0,0,1-1.21,2.91A6.11,6.11,0,0,0,14.11,17H13v-.46a5.75,5.75,0,0,0-2.55-4.78,1,1,0,0,1-.45-.83V10.5a.5.5,0,0,1,1,0V11a1,1,0,0,0,2,0v-.5a.5.5,0,0,1,1,0v.43a1,1,0,0,1-.44.83,1,1,0,1,0,1.1,1.66A3,3,0,0,0,16,10.93V10.5a2.5,2.5,0,0,0-4-2,2.5,2.5,0,0,0-4,2v.43a3,3,0,0,0,1.34,2.5A3.72,3.72,0,0,1,11,16.54V17H9.89a6.11,6.11,0,0,0-1.68-3.21A4.09,4.09,0,0,1,7,10.88Z"/><path d="M20.29,2.29l-2,2a1,1,0,0,0,0,1.42,1,1,0,0,0,1.42,0l2-2a1,1,0,1,0-1.42-1.42Z"/><path d="M3.71,2.29A1,1,0,0,0,2.29,3.71l2,2a1,1,0,0,0,1.42,0,1,1,0,0,0,0-1.42Z"/><path d="M19.71,16.29a1,1,0,0,0-1.42,1.42l2,2a1,1,0,0,0,1.42,0,1,1,0,0,0,0-1.42Z"/><path d="M3,20a1,1,0,0,0,.71-.29l2-2a1,1,0,0,0-1.42-1.42l-2,2a1,1,0,0,0,0,1.42A1,1,0,0,0,3,20Z"/></svg>